<svg width="236" height="216" viewBox="0 0 236 216" fill="none" xmlns="http://www.w3.org/2000/svg">
<g clip-path="url(#clip0_98_386)">
<path d="M63.872 104.88C63.904 107.76 63.136 110 61.568 111.6C60 113.2 57.904 114 55.28 114H47.936C47.616 114 47.456 113.84 47.456 113.52V80.88C47.456 80.56 47.616 80.4 47.936 80.4H54.848C57.6 80.4 59.76 81.168 61.328 82.704C62.896 84.208 63.68 86.368 63.68 89.184C63.68 92.768 62.352 95.216 59.696 96.528C59.632 96.56 59.6 96.592 59.6 96.624C59.6 96.656 59.616 96.688 59.648 96.72C62.464 98.352 63.872 101.072 63.872 104.88ZM51.056 83.376C50.928 83.376 50.864 83.44 50.864 83.568V95.136C50.864 95.264 50.928 95.328 51.056 95.328H54.848C56.576 95.328 57.92 94.816 58.88 93.792C59.84 92.768 60.32 91.328 60.32 89.472C60.32 87.552 59.84 86.064 58.88 85.008C57.92 83.92 56.576 83.376 54.848 83.376H51.056ZM55.04 110.976C56.736 110.976 58.064 110.416 59.024 109.296C59.984 108.144 60.464 106.544 60.464 104.496C60.464 102.416 59.984 100.8 59.024 99.648C58.064 98.496 56.736 97.92 55.04 97.92H51.056C50.928 97.92 50.864 97.984 50.864 98.112V110.784C50.864 110.912 50.928 110.976 51.056 110.976H55.04ZM80.6593 114C80.3713 114 80.1953 113.856 80.1313 113.568L78.9313 107.616C78.9313 107.552 78.8993 107.504 78.8353 107.472C78.8033 107.44 78.7553 107.424 78.6913 107.424H70.0033C69.9393 107.424 69.8753 107.44 69.8113 107.472C69.7793 107.504 69.7633 107.552 69.7633 107.616L68.5633 113.568C68.5313 113.856 68.3553 114 68.0353 114H65.5873C65.4273 114 65.2993 113.952 65.2033 113.856C65.1393 113.76 65.1233 113.632 65.1553 113.472L72.3553 80.832C72.4193 80.544 72.5953 80.4 72.8833 80.4H75.7633C76.0833 80.4 76.2593 80.544 76.2913 80.832L83.5873 113.472V113.568C83.5873 113.856 83.4433 114 83.1553 114H80.6593ZM70.3873 104.448C70.3873 104.576 70.4353 104.64 70.5312 104.64H78.1153C78.2113 104.64 78.2593 104.576 78.2593 104.448L74.4193 85.584C74.3873 85.488 74.3553 85.44 74.3233 85.44C74.2913 85.44 74.2593 85.488 74.2273 85.584L70.3873 104.448ZM94.5031 114.384C92.0391 114.384 90.0551 113.632 88.5511 112.128C87.0791 110.624 86.3431 108.608 86.3431 106.08V88.272C86.3431 85.776 87.0791 83.776 88.5511 82.272C90.0551 80.768 92.0391 80.016 94.5031 80.016C96.9991 80.016 98.9831 80.768 100.455 82.272C101.959 83.744 102.711 85.744 102.711 88.272V89.088C102.711 89.408 102.551 89.568 102.231 89.568L99.7351 89.712C99.4151 89.712 99.2551 89.552 99.2551 89.232V88.032C99.2551 86.528 98.8231 85.312 97.9591 84.384C97.0951 83.456 95.9431 82.992 94.5031 82.992C93.0951 82.992 91.9431 83.456 91.0471 84.384C90.1831 85.312 89.7511 86.528 89.7511 88.032V106.368C89.7511 107.872 90.1831 109.088 91.0471 110.016C91.9431 110.944 93.0951 111.408 94.5031 111.408C95.9431 111.408 97.0951 110.944 97.9591 110.016C98.8231 109.088 99.2551 107.872 99.2551 106.368V105.168C99.2551 104.848 99.4151 104.688 99.7351 104.688L102.231 104.832C102.551 104.832 102.711 104.992 102.711 105.312V106.08C102.711 108.608 101.959 110.624 100.455 112.128C98.9511 113.632 96.9671 114.384 94.5031 114.384ZM109.061 114C108.741 114 108.581 113.84 108.581 113.52V80.88C108.581 80.56 108.741 80.4 109.061 80.4H111.509C111.829 80.4 111.989 80.56 111.989 80.88V96.432C111.989 96.528 112.021 96.592 112.085 96.624C112.149 96.656 112.197 96.624 112.229 96.528L121.493 80.736C121.653 80.512 121.845 80.4 122.069 80.4H124.757C124.949 80.4 125.077 80.464 125.141 80.592C125.205 80.688 125.189 80.816 125.093 80.976L117.605 93.984C117.541 94.112 117.525 94.208 117.557 94.272L125.813 113.424L125.861 113.616C125.861 113.872 125.717 114 125.429 114H122.693C122.437 114 122.261 113.872 122.165 113.616L115.253 97.296C115.221 97.168 115.141 97.168 115.013 97.296L112.037 101.904C112.005 101.936 111.989 102.016 111.989 102.144V113.52C111.989 113.84 111.829 114 111.509 114H109.061Z" fill="black"/>
<path d="M198.895 199.009L-1.73743 215.967L236.065 1.12202L198.895 199.009Z" fill="#D9D9D9"/>
</g>
<defs>
<clipPath id="clip0_98_386">
<rect width="236" height="216" fill="white"/>
</clipPath>
</defs>
</svg>
