<svg width="644" height="644" viewBox="0 0 644 644" fill="none" xmlns="http://www.w3.org/2000/svg">
<rect width="644" height="644" fill="black"/>
<path d="M295.779 361.203C295.926 324.729 305.74 313.596 323.318 302.609C335.916 294.406 345.73 285.324 345.584 271.848C345.73 257.199 334.305 247.678 320.096 247.531C306.473 247.678 293.729 256.76 293.143 273.898H251.541C252.273 232.736 282.889 212.961 320.389 212.961C361.258 212.961 390.115 234.201 390.115 270.383C390.115 294.553 377.664 309.787 358.475 321.359C341.922 331.174 334.598 340.695 334.451 361.203V364.426H295.779V361.203ZM291.385 406.027C291.092 392.551 302.225 381.564 315.994 381.711C329.031 381.564 340.311 392.551 340.311 406.027C340.311 419.65 329.031 430.637 315.994 430.637C302.225 430.637 291.092 419.65 291.385 406.027Z" fill="white"/>
</svg>
