<svg width="1000" height="500" viewBox="0 0 1000 500" fill="none" xmlns="http://www.w3.org/2000/svg">
<rect width="1000" height="500" fill="#F1F1F1"/>
<rect y="440" width="1000" height="60" fill="#51BA79"/>
<path d="M208 175.247H78.7988C74.3942 163.991 89.0271 150.239 102.535 156.895C95.1935 138.542 134.835 117.107 147.559 142.947C158.652 137.319 182.16 133.306 187.445 162.278" stroke="#27B4F0"/>
<path d="M431 242.247H301.799C297.394 230.991 312.027 217.239 325.535 223.895C318.194 205.542 357.835 184.107 370.559 209.947C381.652 204.319 405.16 200.306 410.445 229.278" stroke="#27B4F0"/>
<path d="M716 116.247H586.799C582.394 104.991 597.027 91.239 610.535 97.8948C603.194 79.5424 642.835 58.1067 655.559 83.9469C666.652 78.3188 690.16 74.3058 695.445 103.278" stroke="#27B4F0"/>
<path d="M921 226.247H791.799C787.394 214.991 802.027 201.239 815.535 207.895C808.194 189.542 847.835 168.107 860.559 193.947C871.652 188.319 895.16 184.306 900.445 213.278" stroke="#27B4F0"/>
</svg>
