<svg width="690" height="751" viewBox="0 0 690 751" fill="none" xmlns="http://www.w3.org/2000/svg">
<path d="M5.99995 183.5C-12.8001 43.5 112.833 36.1667 178 50C247 53.7716 260.5 50 324.5 28.0001C388.5 6.00008 414 -15.4999 473 28.0001C532 71.5001 560.5 -6.99994 643.5 60.0001C726.5 127 668.5 286 643.5 316.5C618.5 347 557.5 399 508.5 463C459.5 527 451 593 437.5 626.5C424 660 447.5 763.5 296 746.5C144.5 729.5 115.5 625 109 593C102.5 561 109 497 66.5 476.5C24 456 17.9998 431 5.99995 385.5C-5.99994 340 29.4999 358.5 5.99995 183.5Z" fill="#DDF2BF" stroke="#DDF2BF" stroke-width="5"/>
</svg>
