<svg width="751" height="799" viewBox="0 0 751 799" fill="none" xmlns="http://www.w3.org/2000/svg">
<path d="M13.4998 368C-21.7002 307.2 38.4998 210 72.9998 169C102.527 128 152 112.5 171.5 89C191 65.5 254.5 15.9999 401.5 3.99991C548.5 -8.00009 611.5 110.5 620 176C628.5 241.5 669 263.5 679.5 273.5C690 283.5 763.5 336.5 745 459.5C726.5 582.5 651.5 652.5 558.5 660.5C465.5 668.5 367.5 727.5 341 744.5C314.5 761.5 253.5 811.5 152 791C50.5 770.5 50.5 641 64.5 608C78.5 575 97.5 488 82 459.5C66.5 431 57.4998 444 13.4998 368Z" fill="#FFC7D5" stroke="#FFC7D5" stroke-width="5"/>
</svg>
